<svg width="42" height="42" viewBox="0 0 42 42" fill="none" xmlns="http://www.w3.org/2000/svg">
<path d="M28.656 5.68723C30.6848 5.69329 32.6288 6.50193 34.0635 7.93654C35.4981 9.37116 36.3067 11.3152 36.3128 13.344V28.656C36.3067 30.6848 35.4981 32.6288 34.0635 34.0635C32.6288 35.4981 30.6848 36.3067 28.656 36.3128H13.344C11.3152 36.3067 9.37116 35.4981 7.93654 34.0635C6.50193 32.6288 5.69329 30.6848 5.68723 28.656V13.344C5.69329 11.3152 6.50193 9.37116 7.93654 7.93654C9.37116 6.50193 11.3152 5.69329 13.344 5.68723H28.656M28.656 2.625H13.344C7.44844 2.625 2.625 7.44844 2.625 13.344V28.656C2.625 34.5516 7.44844 39.375 13.344 39.375H28.656C34.5516 39.375 39.375 34.5516 39.375 28.656V13.344C39.375 7.44844 34.5516 2.625 28.656 2.625V2.625Z" fill="black"/>
<path d="M30.9529 13.3442C30.4986 13.3442 30.0545 13.2095 29.6768 12.9571C29.2991 12.7048 29.0047 12.346 28.8308 11.9263C28.657 11.5066 28.6115 11.0448 28.7001 10.5993C28.7887 10.1537 29.0075 9.74445 29.3287 9.42323C29.6499 9.102 30.0592 8.88325 30.5048 8.79462C30.9503 8.706 31.4121 8.75148 31.8318 8.92533C32.2515 9.09917 32.6103 9.39357 32.8626 9.77129C33.115 10.149 33.2497 10.5931 33.2497 11.0474C33.2504 11.3492 33.1914 11.6481 33.0762 11.9271C32.961 12.2061 32.7919 12.4595 32.5784 12.6729C32.365 12.8864 32.1116 13.0555 31.8326 13.1707C31.5536 13.2859 31.2547 13.3449 30.9529 13.3442V13.3442ZM21 14.8749C22.2115 14.8749 23.3957 15.2342 24.403 15.9072C25.4103 16.5803 26.1954 17.5369 26.659 18.6562C27.1226 19.7754 27.2439 21.007 27.0076 22.1952C26.7712 23.3834 26.1879 24.4748 25.3312 25.3314C24.4746 26.1881 23.3832 26.7714 22.195 27.0078C21.0068 27.2441 19.7752 27.1228 18.656 26.6592C17.5367 26.1956 16.5801 25.4105 15.907 24.4032C15.234 23.3959 14.8747 22.2117 14.8747 21.0002C14.8765 19.3762 15.5224 17.8192 16.6707 16.6709C17.819 15.5226 19.376 14.8767 21 14.8749M21 11.8127C19.1829 11.8127 17.4066 12.3516 15.8957 13.3611C14.3848 14.3706 13.2072 15.8055 12.5119 17.4843C11.8165 19.1631 11.6345 21.0104 11.989 22.7926C12.3435 24.5748 13.2186 26.2119 14.5035 27.4968C15.7884 28.7817 17.4254 29.6567 19.2076 30.0112C20.9898 30.3657 22.8371 30.1837 24.5159 29.4884C26.1947 28.793 27.6296 27.6154 28.6391 26.1045C29.6487 24.5936 30.1875 22.8173 30.1875 21.0002C30.1875 18.5635 29.2195 16.2267 27.4965 14.5037C25.7736 12.7807 23.4367 11.8127 21 11.8127V11.8127Z" fill="black"/>
</svg>
