<svg width="18" height="24" viewBox="0 0 18 24" fill="none" xmlns="http://www.w3.org/2000/svg">
<path d="M15.942 5.62697H13.4197V4.41967C13.4197 1.98269 11.437 0 8.99993 0C6.56295 0 4.58026 1.98269 4.58026 4.41967V5.62697H2.05796L0.353516 24H17.6464L15.942 5.62697ZM5.60153 4.41967C5.60153 2.54571 7.12592 1.02127 8.99993 1.02127C10.874 1.02127 12.3984 2.54571 12.3984 4.41967V5.62697H5.60153V4.41967ZM2.98847 6.64824H4.58021V9.64771H3.99676V10.669H6.18488V9.64771H5.60148V6.64824H12.3983V9.64771H11.8149V10.669H14.0031V9.64771H13.4197V6.64824H15.0114L16.5263 22.9787H1.47353L2.98847 6.64824Z" fill="black"/>
</svg>
